PathFileType	4	(X/Y/Z)	/home/alexbeat/data/kuopio-gait-dataset/01/mocap/calib_static_markers.trc
DataRate	CameraRate	NumFrames	NumMarkers	Units	OrigDataRate	OrigDataStartFrame	OrigNumFrames
100.000000	100.000000	4	70	mm	100.000000	184	211
Frame#	Time	Pelvis1			Pelvis2			Pelvis3			Pelvis4			Torso1			Torso2			Torso3			Torso4			RFemur1			RFemur2			RFemur3			RFemur4			LFemur1			LFemur2			LFemur3			LFemur4			RTibia1			RTibia2			RTibia3			RTibia4			LTibia1			LTibia2			LTibia3			LTibia4			LFoot1			LFoot2			LFoot3			RFoot1			RFoot2			RFoot3			*30			*31			*32			*33			*34			*35			*36			*37			*38			Pelvis_RFemur_score			Pelvis_LFemur_score			RFemur_RTibia_score			RFemur_RTibia_sara			LFemur_LTibia_score			LFemur_LTibia_sara			RKnee			LKnee			RTibia_RFoot_score			LTibia_LFoot_score			USERMO0			USERMO1			USERMO2			USERMO3			USERMO4			USERMO5			USERMO6			USERMO7			USERMO8			USERMO9			USERMO10			USERMO11			USERMO12			USERMO13			USERMO14			USERMO15			USERMO16			USERMO17			USERMO18			USERMO19			USERMO20			
		X1	Y1	Z1	X2	Y2	Z2	X3	Y3	Z3	X4	Y4	Z4	X5	Y5	Z5	X6	Y6	Z6	X7	Y7	Z7	X8	Y8	Z8	X9	Y9	Z9	X10	Y10	Z10	X11	Y11	Z11	X12	Y12	Z12	X13	Y13	Z13	X14	Y14	Z14	X15	Y15	Z15	X16	Y16	Z16	X17	Y17	Z17	X18	Y18	Z18	X19	Y19	Z19	X20	Y20	Z20	X21	Y21	Z21	X22	Y22	Z22	X23	Y23	Z23	X24	Y24	Z24	X25	Y25	Z25	X26	Y26	Z26	X27	Y27	Z27	X28	Y28	Z28	X29	Y29	Z29	X30	Y30	Z30	X31	Y31	Z31	X32	Y32	Z32	X33	Y33	Z33	X34	Y34	Z34	X35	Y35	Z35	X36	Y36	Z36	X37	Y37	Z37	X38	Y38	Z38	X39	Y39	Z39	X40	Y40	Z40	X41	Y41	Z41	X42	Y42	Z42	X43	Y43	Z43	X44	Y44	Z44	X45	Y45	Z45	X46	Y46	Z46	X47	Y47	Z47	X48	Y48	Z48	X49	Y49	Z49	X50	Y50	Z50	X51	Y51	Z51	X52	Y52	Z52	X53	Y53	Z53	X54	Y54	Z54	X55	Y55	Z55	X56	Y56	Z56	X57	Y57	Z57	X58	Y58	Z58	X59	Y59	Z59	X60	Y60	Z60	X61	Y61	Z61	X62	Y62	Z62	X63	Y63	Z63	X64	Y64	Z64	X65	Y65	Z65	X66	Y66	Z66	X67	Y67	Z67	X68	Y68	Z68	X69	Y69	Z69	X70	Y70	Z70	

185	1.84	346.4519958496094	1028.010498046875	-306.6146545410156	349.0587768554689	1030.776977539062	-225.870849609375	316.8984069824219	916.8561401367188	-227.8046417236328	315.7855834960939	917.3587036132812	-297.5229187011719	507.0188903808595	1423.747802734375	-262.6975402832031	451.1189270019532	1441.687255859375	-91.8376770019531	445.8501281738282	1465.849487304688	-436.3839416503906	373.0521545410157	1491.561889648438	-254.8062591552734	398.8939208984376	647.4580688476562	-91.09558105468747	394.6828613281251	545.2734375	-101.290901184082	423.2133789062501	592.3507080078125	-89.7434158325195	460.4419860839844	591.4755249023438	-84.83647918701169	422.5726318359376	668.768310546875	-434.3409729003906	484.0889892578126	632.0419311523438	-433.5287475585938	423.3552856445312	563.0433959960938	-423.4309387207031	442.0320129394532	634.0855102539062	-434.5331115722656	377.6800537109375	363.6476135253906	-92.97532653808591	396.9089050292969	419.1826171875	-97.02984619140622	391.9808349609375	317.5822448730469	-92.04744720458982	339.2223815917969	366.6176147460938	-109.3827362060547	363.9067687988281	372.5394592285156	-426.3263549804688	405.5209655761719	350.3889770507812	-431.9989624023438	413.1307373046875	285.19140625	-423.9458618164062	430.6035461425781	394.5914306640625	-424.6715698242188	320.4114379882812	28.20101737976072	-335.2291259765625	555.3360595703125	23.28188896179195	-377.7855224609374	505.9958190917969	23.19157981872556	-421.9345703124999	331.3230285644531	26.58819580078123	-179.6985931396484	562.0202026367188	22.24580001831051	-118.1759719848633	506.0006713867188	20.99492263793942	-76.24493408203122	-1841.671630859375	615.0828857421876	-1498.165283203125	-1909.3369140625	704.5135498046876	-1584.311157226562	580.6613159179689	1629.130126953125	-313.8316345214843	-1821.19677734375	658.2910156250001	-1628.119995117188	-1802.648193359375	662.8557128906251	-1627.411499023438	nan	nan	nan	nan	nan	nan	nan	nan	nan	nan	nan	nan	454.7193298339844	904.1983642578125	-139.8179931640625	458.9065551757812	892.2609252929688	-375.3323059082031	417.7235412597656	461.2405090332031	-145.1430816650391	432.3481140136719	466.9707946777344	-243.9018096923828	433.600341796875	458.3514099121094	-364.3148193359375	437.5373229980469	461.2120056152344	-264.4332885742188	417.7239990234375	461.2409973144531	-145.1430053710938	433.6000061035156	458.3510131835938	-364.3150024414062	356.578125	8.943592071533182	-222.9220123291016	337.5191650390625	18.66787910461424	-373.1003112792969	-1.482894062995911	-0.7360057234764098	0.8890241980552672	0.4433670043945312	0.6213036775588989	-0.4305263757705688	-0.1000000014901161	0.1000000014901161	-0.1000000014901161	-0.02950707636773594	-1.38567841053009	0.0003866972983814758	0.4605811238288879	0.02489149570465085	-0.3783164322376251	-0.1000000014901161	0.1000000014901161	-0.1000000014901161	-1.399143934249878	-0.632684826850891	1.073495388031006	0.3941875100135803	0.3360356986522675	-0.4274578392505646	-0.1000000014901161	0.1000000014901161	-0.1000000014901161	-2.510006666183472	-1.899521112442017	0.07443605363368973	0.337474286556244	0.9919638633728027	-0.2533874213695526	-0.1000000014901161	0.1000000014901161	-0.1000000014901161	0.2039168477058411	-2.241953134536743	-2.464943170547485	0.4056522548198701	0.5950189232826233	-0.09410630166530606	-0.1000000014901161	0.1000000014901161	-0.1000000014901161	-2.46908164024353	-0.02823523245751843	1.881717443466187	0.4664479792118073	0.02327630668878552	-0.124706506729126	-0.1000000014901161	0.1000000014901161	-0.1000000014901161	0.3347758650779727	2.32987117767334	-2.465381383895874	0.3888444304466248	0.3667627274990082	-0.09404403716325757	-0.1000000014901161	0.1000000014901161	-0.1000000014901161	
186	1.85	346.4756164550782	1027.99951171875	-306.6161499023438	349.0698547363282	1030.783325195312	-225.884033203125	316.9252014160157	916.8494873046875	-227.799072265625	315.8044128417969	917.3472290039062	-297.5217895507812	507.0749511718751	1423.752563476562	-262.6927795410156	451.150604248047	1441.677734375	-91.84928131103513	445.9158630371095	1465.851318359375	-436.3892822265625	373.0917968750001	1491.554809570312	-254.8107147216797	398.8876953125001	647.447021484375	-91.09832763671872	394.6743774414062	545.2625732421875	-101.302116394043	423.2086486816407	592.3284912109375	-89.73558044433591	460.4548645019532	591.483154296875	-84.82805633544919	422.5803527832032	668.7546997070312	-434.3383178710938	484.1222229003907	632.024658203125	-433.5072631835938	423.3698730468751	563.0358276367188	-423.4002990722656	442.0446472167969	634.0763549804688	-434.5179138183594	377.6784057617188	363.6467590332031	-92.9772033691406	396.9105834960938	419.1563110351562	-97.04918670654294	391.9876708984375	317.5506896972656	-92.09397888183591	339.2235412597656	366.6172180175781	-109.3882064819336	363.91455078125	372.5353088378906	-426.3277893066406	405.5342102050781	350.3667602539062	-431.9935302734375	413.1417236328125	285.1870727539062	-423.9557495117188	430.6410827636719	394.5755004882812	-424.6943969726562	320.3956298828125	28.20332145690916	-335.2525329589844	555.3361206054688	23.26938247680661	-377.7734985351561	505.9765930175781	23.1814098358154	-421.9368286132811	331.3154602050781	26.57519340515135	-179.7066040039062	562.0145874023438	22.24148178100582	-118.1681747436523	505.9813842773438	20.98651885986325	-76.26979064941403	-1841.708984375	615.1541137695314	-1498.2470703125	-1909.34326171875	704.5288085937501	-1584.31982421875	580.5599365234376	1629.08740234375	-314.0964660644531	-1821.200561523438	658.2234497070314	-1628.126098632812	nan	nan	nan	673.4404296874999	994.5917358398438	3557.287841796875	669.4179077148436	971.4883422851562	3552.6015625	nan	nan	nan	nan	nan	nan	454.7205200195312	904.205078125	-139.8002166748047	458.9250488281251	892.2571411132812	-375.3512573242188	417.7267456054688	461.2350158691406	-145.1513519287109	432.3369445800782	466.9816589355469	-243.9112396240234	433.6318664550781	458.3482971191406	-364.2975158691406	437.5765380859375	461.2256469726562	-264.4167785644531	417.7269897460938	461.2349853515625	-145.1510009765625	433.6319885253906	458.3479919433594	-364.2980041503906	356.5297546386719	8.951268196105936	-222.98388671875	337.5015258789062	18.6700801849365	-373.089111328125	-1.483209490776062	-0.7360293269157409	0.8890550136566161	0.4433839321136476	0.6212919950485229	-0.4305079877376556	-0.1000000014901161	0.1000000014901161	-0.1000000014901161	-0.02956459671258934	-1.385799169540405	0.0003485462802927923	0.4605694711208344	0.0248847063630819	-0.3783209621906281	-0.1000000014901161	0.1000000014901161	-0.1000000014901161	-1.399062275886536	-0.6323053240776061	1.073594212532043	0.3942022919654846	0.3360254764556885	-0.4274610877037048	-0.1000000014901161	0.1000000014901161	-0.1000000014901161	-2.51004695892334	-1.899673461914062	0.07449636608362183	0.3374926745891572	0.991959810256958	-0.253391444683075	-0.1000000014901161	0.1000000014901161	-0.1000000014901161	0.2042180448770523	-2.241902112960815	-2.465056180953979	0.4056509733200074	0.595008909702301	-0.09410812705755231	-0.1000000014901161	0.1000000014901161	-0.1000000014901161	-2.46910834312439	-0.0283565185964106	1.881661415100098	0.4664371609687805	0.02326773107051846	-0.1247148662805557	-0.1000000014901161	0.1000000014901161	-0.1000000014901161	0.3342980146408084	2.330464363098145	-2.465469360351562	0.3888482451438904	0.3667455613613129	-0.09406815469264981	-0.1000000014901161	0.1000000014901161	-0.1000000014901161	
187	1.86	346.4863281250001	1028.00732421875	-306.628662109375	349.1072387695312	1030.785034179688	-225.8836975097656	316.9282531738282	916.8548583984375	-227.8071441650391	315.8290710449219	917.364990234375	-297.5474853515625	507.094451904297	1423.748046875	-262.6825561523438	451.1911010742189	1441.681518554688	-91.85211181640622	445.9837951660157	1465.844482421875	-436.3858337402344	373.1264953613282	1491.553466796875	-254.8139343261719	398.9004516601562	647.4465942382812	-91.10131835937497	394.6763916015626	545.2702026367188	-101.2922515869141	423.2309875488282	592.345458984375	-89.74864959716794	460.4887390136719	591.4833374023438	-84.82270812988278	422.6193237304689	668.755615234375	-434.3585510253906	484.1516723632812	632.0113525390625	-433.5195617675781	423.3892211914062	563.01806640625	-423.4229125976562	442.1076660156251	634.092529296875	-434.5505676269531	377.6702880859375	363.6547546386719	-92.97698211669919	396.8994445800781	419.1478576660156	-97.059455871582	391.9913940429688	317.563232421875	-92.08200073242185	339.2160949707031	366.6151123046875	-109.3922882080078	363.9353332519531	372.54345703125	-426.3343200683594	405.5304565429688	350.3641052246094	-431.9977416992188	413.1367492675781	285.1918029785156	-423.9724731445312	430.6480102539062	394.5774841308594	-424.6950073242188	320.4069213867188	28.19067001342771	-335.2526550292969	555.3336791992188	23.27561569213863	-377.7729187011718	505.9775085449219	23.1830024719238	-421.9401245117188	331.3343811035156	26.57860946655271	-179.7125854492188	562.0130615234375	22.24107742309566	-118.1743469238281	506.0033264160156	20.9972057342529	-76.25336456298825	-1841.686279296875	615.1444091796876	-1498.119384765625	-1909.335571289062	704.5087890625001	-1584.326171875	580.7250366210939	1629.101440429688	-313.9369812011718	-1821.213623046875	658.2527465820314	-1628.117431640625	-1847.125244140625	600.3702392578126	-1526.649169921875	nan	nan	nan	nan	nan	nan	nan	nan	nan	nan	nan	nan	454.7477111816407	904.1946411132812	-139.8326721191406	458.9647521972657	892.2569580078125	-375.3704223632812	417.72265625	461.2328796386719	-145.1531524658203	432.3322448730469	466.9633178710938	-243.9140777587891	433.6395568847656	458.3415222167969	-364.3078308105469	437.5745544433594	461.2102661132812	-264.4264526367188	417.7229919433594	461.2330017089844	-145.1529998779297	433.6400146484375	458.3420104980469	-364.3080139160156	356.5569152832031	8.933206558227518	-222.9435272216797	337.4812927246094	18.66764831542967	-373.1150207519531	-1.483323454856873	-0.7360271215438842	0.888786494731903	0.4434208869934083	0.6212884783744812	-0.4305299818515778	-0.1000000014901161	0.1000000014901161	-0.1000000014901161	-0.02951744757592686	-1.385784506797791	0.0004238130350131523	0.4605727195739746	0.02488309703767297	-0.3783219158649445	-0.1000000014901161	0.1000000014901161	-0.1000000014901161	-1.398990511894226	-0.6322759389877318	1.073404788970947	0.3942049443721771	0.3360299170017242	-0.4274702668190002	-0.1000000014901161	0.1000000014901161	-0.1000000014901161	-2.510046243667603	-1.899471759796143	0.07445212453603729	0.3375141322612762	0.991966187953949	-0.2534011006355286	-0.1000000014901161	0.1000000014901161	-0.1000000014901161	0.2040499448776245	-2.242058515548706	-2.464913368225098	0.4056685566902162	0.5950157046318054	-0.09410727024078366	-0.1000000014901161	0.1000000014901161	-0.1000000014901161	-2.469224691390991	-0.02808494493365273	1.881701111793518	0.4664502739906311	0.02327229827642438	-0.1247134357690811	-0.1000000014901161	0.1000000014901161	-0.1000000014901161	0.3343028128147129	2.3300940990448	-2.465614795684814	0.3888422250747681	0.3667502403259277	-0.09406777471303937	-0.1000000014901161	0.1000000014901161	-0.1000000014901161	
188	1.87	346.5330810546876	1028.032958984375	-306.63916015625	349.1450805664062	1030.812255859375	-225.8926696777344	316.9599609375001	916.8870239257812	-227.8337554931641	315.8562927246094	917.388427734375	-297.5511779785156	507.1442871093751	1423.750122070312	-262.6886901855468	451.2255859375001	1441.687866210938	-91.87541961669919	446.0261230468751	1465.865356445312	-436.3897705078125	373.1743164062501	1491.56396484375	-254.8185119628906	398.9327392578126	647.4536743164062	-91.09741210937497	394.7046203613282	545.2848510742188	-101.2867736816406	423.2681579589844	592.3834228515625	-89.73495483398435	460.5094604492189	591.47314453125	-84.81443786621091	422.6581115722657	668.7565307617188	-434.3738098144531	484.2104187011719	632.0651245117188	-433.5599670410156	423.4197998046876	563.0210571289062	-423.4392700195312	442.0944824218751	634.0919799804688	-434.5419616699219	377.6700744628906	363.6195373535156	-92.99324035644528	396.9241333007812	419.1793518066406	-97.03325653076169	392.0056457519531	317.5964660644531	-92.04786682128903	339.2352600097656	366.6236877441406	-109.4064331054688	363.928955078125	372.5389099121094	-426.3350830078125	405.5620422363281	350.3857421875	-432.0137634277344	413.1675415039062	285.1939086914062	-423.9710083007812	430.6570129394531	394.5834350585938	-424.6907958984375	320.4083862304688	28.2047710418701	-335.2434387207031	555.3567504882812	23.26160812377926	-377.7752380371093	505.9977416992188	23.17640686035153	-421.9307556152343	331.3900451660156	26.57497787475584	-179.7198486328125	562.0335083007812	22.23981094360348	-118.1717910766602	505.986572265625	21.00093078613278	-76.24166870117185	-1841.830688476562	614.6722412109376	-1498.225830078125	-1909.337158203125	704.5374145507814	-1584.303466796875	580.6662597656251	1629.039306640625	-314.1373596191406	-1821.221435546875	658.2654418945314	-1628.112548828125	nan	nan	nan	-1802.624633789062	662.8517456054689	-1627.256713867188	nan	nan	nan	nan	nan	nan	nan	nan	nan	454.7960205078126	904.205322265625	-139.8307342529297	458.9796752929689	892.2708740234375	-375.3755493164062	417.7549438476562	461.2428588867188	-145.1333923339844	432.4075317382812	466.9691772460938	-243.8881988525391	433.6752624511719	458.3513488769531	-364.3173828125	437.6240234375	461.2161560058594	-264.4364624023438	417.7550048828125	461.2430114746094	-145.1329956054688	433.6749877929688	458.3510131835938	-364.3169860839844	356.6369934082031	8.928312301635721	-222.9420166015625	337.5344848632812	18.6676330566406	-373.1219787597656	-1.483009219169617	-0.7359343767166137	0.8891685009002684	0.4434506297111512	0.6213027834892273	-0.4305461645126343	-0.1000000014901161	0.1000000014901161	-0.1000000014901161	-0.02958057075738915	-1.385776042938232	0.0003047626523766649	0.4605876505374908	0.02488092891871926	-0.3783164918422698	-0.1000000014901161	0.1000000014901161	-0.1000000014901161	-1.39897358417511	-0.6325396299362182	1.073523044586182	0.3942248225212097	0.3360339999198914	-0.4274743497371674	-0.1000000014901161	0.1000000014901161	-0.1000000014901161	-2.510172128677368	-1.899354934692383	0.07438232004642471	0.3375514149665834	0.991992712020874	-0.253413200378418	-0.1000000014901161	0.1000000014901161	-0.1000000014901161	0.2040350437164307	-2.242187976837158	-2.465015411376953	0.4056985378265381	0.595029890537262	-0.09410076588392255	-0.1000000014901161	0.1000000014901161	-0.1000000014901161	-2.469425916671753	-0.02796798944473252	1.881550788879395	0.4664700627326965	0.02327190712094304	-0.1247111111879349	-0.1000000014901161	0.1000000014901161	-0.1000000014901161	0.3351424932479861	2.329703807830811	-2.465086221694946	0.3888537883758545	0.366760641336441	-0.09405078738927838	-0.1000000014901161	0.1000000014901161	-0.1000000014901161	
